<svg id="Group_4915" data-name="Group 4915" xmlns="http://www.w3.org/2000/svg" xmlns:xlink="http://www.w3.org/1999/xlink" width="27.858" height="27.982" viewBox="0 0 27.858 27.982">
  <defs>
    <clipPath id="clip-path">
      <rect id="Rectangle_2073" data-name="Rectangle 2073" width="27.858" height="27.982" fill="none"/>
    </clipPath>
  </defs>
  <g id="Group_4914" data-name="Group 4914" clip-path="url(#clip-path)">
    <path id="Path_4128" data-name="Path 4128" d="M23.452,16.681a2.923,2.923,0,0,0-2.119-.971,3.021,3.021,0,0,0-2.144.965l-1.981,1.974c-.164-.088-.326-.17-.483-.251-.226-.113-.439-.219-.621-.332a21.548,21.548,0,0,1-5.159-4.7,12.715,12.715,0,0,1-1.692-2.671c.514-.47.991-.959,1.454-1.43.176-.175.351-.357.526-.533a2.877,2.877,0,0,0,0-4.338L9.523,2.683c-.194-.194-.4-.394-.582-.595C8.563,1.7,8.169,1.3,7.762.922A2.969,2.969,0,0,0,5.661,0,3.072,3.072,0,0,0,3.53.922L3.518.934,1.386,3.084A4.591,4.591,0,0,0,.026,6a10.97,10.97,0,0,0,.8,4.65,27.005,27.005,0,0,0,4.795,8,29.517,29.517,0,0,0,9.823,7.692,15.32,15.32,0,0,0,5.517,1.629c.131.006.269.012.394.012a4.724,4.724,0,0,0,3.618-1.554c.006-.013.018-.019.024-.031a14.141,14.141,0,0,1,1.1-1.135c.269-.257.545-.526.815-.808a3.127,3.127,0,0,0,.946-2.169,3.015,3.015,0,0,0-.965-2.15Zm2.244,6.6c-.006,0-.006.006,0,0-.245.263-.495.5-.765.765A16.217,16.217,0,0,0,23.721,25.3a3.022,3.022,0,0,1-2.357,1c-.094,0-.194,0-.288-.006a13.608,13.608,0,0,1-4.89-1.466,27.863,27.863,0,0,1-9.252-7.246,25.46,25.46,0,0,1-4.513-7.516,8.967,8.967,0,0,1-.7-3.924,2.879,2.879,0,0,1,.866-1.862L4.721,2.138a1.424,1.424,0,0,1,.953-.445,1.338,1.338,0,0,1,.915.439l.019.018c.382.358.746.728,1.128,1.122.195.2.4.4.6.609l1.711,1.711a1.2,1.2,0,0,1,0,1.943c-.182.182-.358.364-.539.539-.526.54-1.028,1.041-1.573,1.53-.013.012-.025.018-.032.031a1.279,1.279,0,0,0-.325,1.423l.018.057a13.741,13.741,0,0,0,2.025,3.3l.006.006a23.015,23.015,0,0,0,5.566,5.065,8.327,8.327,0,0,0,.771.42c.226.114.439.219.621.332.025.013.05.031.075.045a1.368,1.368,0,0,0,.62.157,1.339,1.339,0,0,0,.953-.433l2.144-2.143a1.418,1.418,0,0,1,.946-.47,1.277,1.277,0,0,1,.9.457l3.466,3.466a1.24,1.24,0,0,1,.006,1.962" transform="translate(0)" fill="#1a1818"/>
  </g>
</svg>
