<svg xmlns="http://www.w3.org/2000/svg" width="28.176" height="26.923" viewBox="0 0 28.176 26.923">
  <g id="Group_4922" data-name="Group 4922" transform="translate(0 0)">
    <g id="Group_4926" data-name="Group 4926" transform="translate(0 0)">
      <path id="Path_4132" data-name="Path 4132" d="M6.006,26.923A.888.888,0,0,1,5.129,25.9l1.366-8.613L.267,11.178A.889.889,0,0,1,.75,9.665L9.364,8.3,13.245.493A.89.89,0,0,1,14.037,0a.879.879,0,0,1,.8.485L18.79,8.257l8.628,1.279a.888.888,0,0,1,.5,1.507l-6.169,6.165,1.45,8.6a.889.889,0,0,1-1.279.94l-7.768-3.962L6.418,26.823a.89.89,0,0,1-.411.1M2.771,11.145l5.295,5.189a.889.889,0,0,1,.255.774L7.16,24.43,13.732,21a.883.883,0,0,1,.815,0l6.6,3.367-1.233-7.31a.892.892,0,0,1,.248-.777l5.244-5.24L18.076,9.948a.892.892,0,0,1-.663-.476L14.05,2.865,10.751,9.5a.889.889,0,0,1-.657.482Z" transform="translate(0 0)" fill="#1a1818"/>
    </g>
  </g>
</svg>
