<svg xmlns="http://www.w3.org/2000/svg" width="24.995" height="28.566" viewBox="0 0 24.995 28.566">
  <g id="Group_4924" data-name="Group 4924" transform="translate(-0.048 0.04)">
    <g id="Group_4925" data-name="Group 4925" transform="translate(-0.288 0.242)">
      <path id="Path_4133" data-name="Path 4133" d="M16.658,13.38a7.341,7.341,0,1,0-8.322,0C3.385,14.57,0,17.858,0,21.954v2.965a3.652,3.652,0,0,0,3.648,3.648h17.7A3.652,3.652,0,0,0,25,24.919V21.954c0-4.1-3.385-7.384-8.337-8.574M6.942,7.341A5.555,5.555,0,1,1,12.5,12.894,5.561,5.561,0,0,1,6.942,7.341M23.21,24.919a1.865,1.865,0,0,1-1.862,1.862H3.648a1.865,1.865,0,0,1-1.862-1.862V21.954c0-4.08,4.705-7.275,10.712-7.275S23.21,17.874,23.21,21.954Z" transform="translate(0.336 -0.283)" fill="#1a1818"/>
    </g>
  </g>
</svg>
